<mxfile host="app.diagrams.net" agent="Mozilla/5.0 (Windows NT 10.0; Win64; x64) AppleWebKit/537.36 (KHTML, like Gecko) Chrome/112.0.0.0 Safari/537.36" version="26.0.7">
  <diagram name="第 1 页" id="hirMH8vLalg8p9j057zK">
    <mxGraphModel dx="1407" dy="730" grid="1" gridSize="10" guides="1" tooltips="1" connect="1" arrows="1" fold="1" page="1" pageScale="1" pageWidth="1169" pageHeight="827" math="1" shadow="0">
      <root>
        <mxCell id="0" />
        <mxCell id="1" parent="0" />
        <mxCell id="h-gYAm-RfmHySiRkya6A-1" value="" style="shape=image;verticalLabelPosition=bottom;labelBackgroundColor=default;verticalAlign=top;aspect=fixed;imageAspect=0;editableCssRules=.*;image=data:image/svg+xml,PHN2ZyB4bWxuczp4bGluaz0iaHR0cDovL3d3dy53My5vcmcvMTk5OS94bGluayIgeG1sbnM9Imh0dHA6Ly93d3cudzMub3JnLzIwMDAvc3ZnIiB2aWV3Qm94PSIwIDAgNTU4LjQ5NyAzNzUuMDQiIGhlaWdodD0iNTAwLjA1MyIgd2lkdGg9Ijc0NC42NjMiPjxzeW1ib2wgaWQ9ImEiPjxwYXRoIGQ9Ik0uMDQuOTY0Qy4wNC45ODIuMDQgMSAuMDIgMVMwIC45ODIgMCAuOTY0Vi4wMzZDMCAuMDE4IDAgMCAuMDIgMHMuMDIuMDE4LjAyLjAzNnYuOTI4eiIvPjwvc3ltYm9sPjx1c2UgdHJhbnNmb3JtPSJtYXRyaXgoOS45NjI2IDAgMCAtOS45NjI2IDg5LjE4OSAxMTEpIiB4bGluazpocmVmPSIjYSIvPjxzeW1ib2wgaWQ9ImIiPjxwYXRoIGQ9Ik0uMjA1LjY0YzAgLjAyNCAwIC4wMjYtLjAyMy4wMjZDLjEyLjYwMi4wMzIuNjAyIDAgLjYwMlYuNTcxYS4zLjMgMCAwIDEgLjEzMS4wMjZWLjA3OUMuMTMxLjA0My4xMjguMDMxLjAzOC4wMzFILjAwNlYwYy4wMzUuMDAzLjEyMi4wMDMuMTYyLjAwMy4wNCAwIC4xMjcgMCAuMTYyLS4wMDN2LjAzMUguMjk4Yy0uMDkgMC0uMDkzLjAxMS0uMDkzLjA0OFYuNjR6Ii8+PC9zeW1ib2w+PHVzZSB0cmFuc2Zvcm09Im1hdHJpeCg5Ljk2MjYgMCAwIC05Ljk2MjYgOTEuNjU4IDEwOC41MSkiIHhsaW5rOmhyZWY9IiNiIi8+PHN5bWJvbCBpZD0iYyI+PHBhdGggZD0iTS4yMTguNDgzQy4yMjMuNDk1LjIyMy40OTcuMjIzLjVjMCAuMDAzIDAgLjAwNS0uMDA1LjAxN2wtLjE3NS40NkMuMDM3Ljk5NC4wMzEgMSAuMDIgMUEuMDIuMDIgMCAwIDEgMCAuOThDMCAuOTc3IDAgLjk3NS4wMDUuOTY0TC4xODIuNS4wMDUuMDM4QzAgLjAyNyAwIC4wMjUgMCAuMDJBLjAyLjAyIDAgMCAxIC4wMiAwYy4wMTMgMCAuMDE3LjAxLjAyMS4wMmwuMTc3LjQ2M3oiLz48L3N5bWJvbD48dXNlIHRyYW5zZm9ybT0ibWF0cml4KDkuOTYyNiAwIDAgLTkuOTYyNiA5Ni4zIDExMSkiIHhsaW5rOmhyZWY9IiNjIi8+PHBhdGggZD0iTTEwNC42MDcgMTA2LjAxOWgtNC45ODFNMTA5LjU4OSAxMDYuMDE5aC00Ljk4Mk0xMjcuNDUyIDEwNi4wMTloLTE3Ljg2M00xNjQuNzAzIDEwNi4wMTloLTM3LjI1MU0xODkuMDcyIDEwNi4wMTloLTI0LjM2OU0yMTMuNjIxIDEwNi4wMTloLTI0LjU0OU0yMzguMTcgMTA2LjAxOWgtMjQuNTQ5TTI2Mi40MjcgMTA2LjAxOUgyMzguMTdNMjg2LjY4NCAxMDYuMDE5aC0yNC4yNTdNMzE0LjM2MyAxMDYuMDE5aC0yNy42NzlNMzQyLjA0MyAxMDYuMDE5aC0yNy42OCIgc3Ryb2tlPSIjMDAwIiBmaWxsPSJub25lIiBzdHJva2UtbGluZWpvaW49InJvdW5kIiBzdHJva2UtbGluZWNhcD0icm91bmQiIHN0cm9rZS13aWR0aD0iLjM5OCIvPjxzeW1ib2wgaWQ9ImQiPjxwYXRoIGQ9Ik0uNzI0LjYwNmMuMDA5LjAzNi4wMTEuMDQ2LjA4NC4wNDYuMDI2IDAgLjAzNCAwIC4wMzQuMDIgMCAuMDExLS4wMTEuMDExLS4wMTQuMDExTC43LjY4LjU3MS42ODNjLS4wMDggMC0uMDE5IDAtLjAxOS0uMDJDLjU1Mi42NTIuNTYxLjY1Mi41OC42NTJjLjAwMiAwIC4wMjEgMCAuMDM4LS4wMDJDLjYzNi42NDguNjQ1LjY0Ny42NDUuNjM0TC42NDEuNjE1LjU4MS4zNzFILjI3NmwuMDU5LjIzNWMuMDA5LjAzNi4wMTIuMDQ2LjA4NC4wNDYuMDI2IDAgLjAzNCAwIC4wMzQuMDIgMCAuMDExLS4wMTEuMDExLS4wMTQuMDExTC4zMTEuNjguMTgyLjY4M2MtLjAwOCAwLS4wMTkgMC0uMDE5LS4wMiAwLS4wMTEuMDA5LS4wMTEuMDI4LS4wMTEuMDAyIDAgLjAyMSAwIC4wMzgtLjAwMkMuMjQ3LjY0OC4yNTYuNjQ3LjI1Ni42MzRMLjI1Mi42MTUuMTE4LjA3OEMuMTA4LjAzOS4xMDYuMDMxLjAyNy4wMzEuMDA5LjAzMSAwIC4wMzEgMCAuMDExIDAgMCAuMDEyIDAgLjAxNCAwbC4xMjcuMDAzLjA2NC0uMDAxTC4yNyAwYy4wMDggMCAuMDIgMCAuMDIuMDJDLjI5LjAzMS4yODEuMDMxLjI2Mi4wMzFjLS4wMzcgMC0uMDY1IDAtLjA2NS4wMThDLjE5Ny4wNTUuMTk5LjA2LjIuMDY2TC4yNjguMzRoLjMwNUwuNTA0LjA2NEMuNDk0LjAzMi40NzUuMDMxLjQxMy4wMzFjLS4wMTUgMC0uMDI0IDAtLjAyNC0uMDJDLjM4OSAwIC40MDEgMCAuNDAzIDBMLjUzLjAwMy41OTQuMDAyLjY1OSAwYy4wMDggMCAuMDIgMCAuMDIuMDJDLjY3OS4wMzEuNjcuMDMxLjY1MS4wMzFjLS4wMzcgMC0uMDY1IDAtLjA2NS4wMTggMCAuMDA2LjAwMi4wMTEuMDAzLjAxN2wuMTM1LjU0eiIvPjwvc3ltYm9sPjx1c2UgdHJhbnNmb3JtPSJtYXRyaXgoOS45NjI2IDAgMCAtOS45NjI2IDM3Ny4yMSAxMDkuNDIzKSIgeGxpbms6aHJlZj0iI2QiLz48cGF0aCBkPSJNMzg4LjkgOTkuNjI2aC0xNS4wNjlNMzczLjgzMSA5OS42MjZ2MTIuNzg2TTM3My44MzEgMTEyLjQxMkgzODguOU0zODguOSAxMTIuNDEyVjk5LjYyNk0zNzMuODMxIDEwNi4wMTloLTMxLjc4OE00MjAuNjg5IDEwNi4wMTlIMzg4LjlNNDI1Ljg3IDEwNi4wMTloNy43N000MjkuNzU1IDEwOS45MDR2LTcuNzdNNDI5Ljc1NSAxMDIuMDM0YTMuOTg3IDMuOTg3IDAgMCAwLTMuOTg1IDMuOTg1TTQyNS43NyAxMDYuMDE5YTMuOTg3IDMuOTg3IDAgMCAwIDMuOTg1IDMuOTg1TTQyOS43NTUgMTEwLjAwNGEzLjk4NyAzLjk4NyAwIDAgMCAzLjk4NS0zLjk4NU00MzMuNzQgMTA2LjAxOWEzLjk4NyAzLjk4NyAwIDAgMC0zLjk4NS0zLjk4NU00MjUuNjcgMTA2LjAxOWgtNC45ODEiIHN0cm9rZT0iIzAwMCIgZmlsbD0ibm9uZSIgc3Ryb2tlLWxpbmVqb2luPSJyb3VuZCIgc3Ryb2tlLWxpbmVjYXA9InJvdW5kIiBzdHJva2Utd2lkdGg9Ii4zOTgiLz48dXNlIHRyYW5zZm9ybT0ibWF0cml4KDkuOTYyNiAwIDAgLTkuOTYyNiA0NDIuMTk5IDEwOS40MjMpIiB4bGluazpocmVmPSIjZCIvPjxwYXRoIGQ9Ik00NTMuODg5IDk5LjYyNmgtMTUuMDY4TTQzOC44MjEgOTkuNjI2djEyLjc4Nk00MzguODIxIDExMi40MTJoMTUuMDY4TTQ1My44ODkgMTEyLjQxMlY5OS42MjZNNDM4LjgyMSAxMDYuMDE5aC00Ljk4Mk00NTguODcxIDEwNi4wMTloLTQuOTgyIiBzdHJva2U9IiMwMDAiIGZpbGw9Im5vbmUiIHN0cm9rZS1saW5lam9pbj0icm91bmQiIHN0cm9rZS1saW5lY2FwPSJyb3VuZCIgc3Ryb2tlLXdpZHRoPSIuMzk4Ii8+PHVzZSB0cmFuc2Zvcm09Im1hdHJpeCg5Ljk2MjYgMCAwIC05Ljk2MjYgODkuMTg5IDEzMS40NCkiIHhsaW5rOmhyZWY9IiNhIi8+PHN5bWJvbCBpZD0iZSI+PHBhdGggZD0iTS40MjEuMzQyYzAgLjA4LS4wMDUuMTYtLjA0LjIzNEEuMTg1LjE4NSAwIDAgMSAuMDM3LjU2OS41MzUuNTM1IDAgMCAxIDAgLjM0MkMwIC4yNjcuMDA0LjE3Ny4wNDUuMTAxQS4xODMuMTgzIDAgMCAxIC4yMSAwYy4wNTQgMCAuMTMuMDIxLjE3NC4xMTZhLjUzMy41MzMgMCAwIDEgLjAzNy4yMjZNLjIxLjAyMkMuMTcxLjAyMi4xMTIuMDQ3LjA5NC4xNDMuMDgzLjIwMy4wODMuMjk1LjA4My4zNTRjMCAuMDY0IDAgLjEzLjAwOC4xODRDLjExLjY1Ny4xODUuNjY2LjIxLjY2Ni4yNDMuNjY2LjMwOS42NDguMzI4LjU0OWMuMDEtLjA1Ni4wMS0uMTMyLjAxLS4xOTUgMC0uMDc1IDAtLjE0My0uMDExLS4yMDdDLjMxMi4wNTIuMjU1LjAyMi4yMS4wMjJ6Ii8+PC9zeW1ib2w+PHVzZSB0cmFuc2Zvcm09Im1hdHJpeCg5Ljk2MjYgMCAwIC05Ljk2MjYgOTEuMTYgMTI5LjE3KSIgeGxpbms6aHJlZj0iI2UiLz48dXNlIHRyYW5zZm9ybT0ibWF0cml4KDkuOTYyNiAwIDAgLTkuOTYyNiA5Ni4zIDEzMS40NCkiIHhsaW5rOmhyZWY9IiNjIi8+PHBhdGggZD0iTTEwNC42MDcgMTI2LjQ1OWgtNC45ODFNMTA5LjU4OSAxMjYuNDU5aC00Ljk4Mk0xMjcuNDUyIDEyNi40NTloLTE3Ljg2M00xNjQuNzAzIDEyNi40NTloLTM3LjI1MU0xODkuMDcyIDEyNi40NTloLTI0LjM2OU0yMTMuNjIxIDEyNi40NTloLTI0LjU0OU0yMzguMTcgMTI2LjQ1OWgtMjQuNTQ5TTI2Mi40MjcgMTI2LjQ1OUgyMzguMTdNMjg2LjY4NCAxMjYuNDU5aC0yNC4yNTdNMzE0LjM2MyAxMjYuNDU5aC0yNy42NzlNMzQyLjA0MyAxMjYuNDU5aC0yNy42OE0zNzcuNDgxIDEyNi40NTloNy43N00zODEuMzY2IDEzMC4zNDR2LTcuNzdNMzgxLjM2NiAxMjIuNDc0YTMuOTg3IDMuOTg3IDAgMCAwLTMuOTg1IDMuOTg1TTM3Ny4zODEgMTI2LjQ1OWEzLjk4NyAzLjk4NyAwIDAgMCAzLjk4NSAzLjk4NU0zODEuMzY2IDEzMC40NDRhMy45ODcgMy45ODcgMCAwIDAgMy45ODUtMy45ODUiIHN0cm9rZT0iIzAwMCIgZmlsbD0ibm9uZSIgc3Ryb2tlLWxpbmVqb2luPSJyb3VuZCIgc3Ryb2tlLWxpbmVjYXA9InJvdW5kIiBzdHJva2Utd2lkdGg9Ii4zOTgiLz48cGF0aCBkPSJNMzg1LjM1MSAxMjYuNDU5YTMuOTg3IDMuOTg3IDAgMCAwLTMuOTg1LTMuOTg1TTM3Ny4yODEgMTI2LjQ1OWgtMzUuMjM4TTM4MS4zNjYgMTMwLjU0NHY4NS4wNTFNMzc3LjI4MSAxMjYuNDU5aC0zNS4yMzhNNDIwLjY4OSAxMjYuNDU5SDM4NS40NSIgc3Ryb2tlPSIjMDAwIiBmaWxsPSJub25lIiBzdHJva2UtbGluZWpvaW49InJvdW5kIiBzdHJva2UtbGluZWNhcD0icm91bmQiIHN0cm9rZS13aWR0aD0iLjM5OCIvPjxzeW1ib2wgaWQ9ImYiPjxwYXRoIGQ9Ik0uMzg5LjE5NGEuMTk1LjE5NSAwIDAgMS0uMTk0LjE5NEEuMTk2LjE5NiAwIDAgMSAwIC4xOTRDMCAuMDg4LjA4NyAwIC4xOTUgMCAuMyAwIC4zODkuMDg3LjM4OS4xOTR6Ii8+PC9zeW1ib2w+PHVzZSB0cmFuc2Zvcm09Im1hdHJpeCg5Ljk2MjYgMCAwIC05Ljk2MjYgNDI3LjgxMiAxMjguMzY0KSIgeGxpbms6aHJlZj0iI2YiLz48cGF0aCBkPSJNNDI5Ljc1NSAxMjUuMzc5di0xNS4yNzVNNDI4LjUzNyAxMjYuNDU5aC03Ljg0OE00NDYuMzU1IDEyNi40NTloLTE1LjM4M000NTguODcxIDEyNi40NTloLTEyLjUxNiIgc3Ryb2tlPSIjMDAwIiBmaWxsPSJub25lIiBzdHJva2UtbGluZWpvaW49InJvdW5kIiBzdHJva2UtbGluZWNhcD0icm91bmQiIHN0cm9rZS13aWR0aD0iLjM5OCIvPjx1c2UgdHJhbnNmb3JtPSJtYXRyaXgoOS45NjI2IDAgMCAtOS45NjI2IDg5LjE4OSAxNDkuNTczKSIgeGxpbms6aHJlZj0iI2EiLz48dXNlIHRyYW5zZm9ybT0ibWF0cml4KDkuOTYyNiAwIDAgLTkuOTYyNiA5MS4xNiAxNDcuMzAxKSIgeGxpbms6aHJlZj0iI2UiLz48dXNlIHRyYW5zZm9ybT0ibWF0cml4KDkuOTYyNiAwIDAgLTkuOTYyNiA5Ni4zIDE0OS41NzMpIiB4bGluazpocmVmPSIjYyIvPjxwYXRoIGQ9Ik0xMDQuNjA3IDE0NC41OTFoLTQuOTgxTTEwOS41ODkgMTQ0LjU5MWgtNC45ODJNMTI3LjQ1MiAxNDQuNTkxaC0xNy44NjNNMTY0LjcwMyAxNDQuNTkxaC0zNy4yNTFNMTg5LjA3MiAxNDQuNTkxaC0yNC4zNjlNMjEzLjYyMSAxNDQuNTkxaC0yNC41NDlNMjM4LjE3IDE0NC41OTFoLTI0LjU0OU0yNjIuNDI3IDE0NC41OTFIMjM4LjE3TTI4Ni42ODQgMTQ0LjU5MWgtMjQuMjU3TTMxMC40NzkgMTQ0LjU5MWg3Ljc3TTMxNC4zNjQgMTQ4LjQ3NnYtNy43N00zMTQuMzY0IDE0MC42MDZhMy45ODcgMy45ODcgMCAwIDAtMy45ODUgMy45ODVNMzEwLjM3OSAxNDQuNTkxYTMuOTg3IDMuOTg3IDAgMCAwIDMuOTg1IDMuOTg1IiBzdHJva2U9IiMwMDAiIGZpbGw9Im5vbmUiIHN0cm9rZS1saW5lam9pbj0icm91bmQiIHN0cm9rZS1saW5lY2FwPSJyb3VuZCIgc3Ryb2tlLXdpZHRoPSIuMzk4Ii8+PHBhdGggZD0iTTMxNC4zNjQgMTQ4LjU3NmEzLjk4NyAzLjk4NyAwIDAgMCAzLjk4NS0zLjk4NSIgc3Ryb2tlPSIjMDAwIiBmaWxsPSJub25lIiBzdHJva2UtbGluZWpvaW49InJvdW5kIiBzdHJva2UtbGluZWNhcD0icm91bmQiIHN0cm9rZS13aWR0aD0iLjM5OCIvPjxwYXRoIGQ9Ik0zMTguMzQ5IDE0NC41OTFhMy45ODcgMy45ODcgMCAwIDAtMy45ODUtMy45ODVNMzEwLjI3OSAxNDQuNTkxaC0yMy41OTVNMzE0LjM2MyAxNDguNjc2djExMi40NThNMzEwLjI3OSAxNDQuNTkxaC0yMy41OTVNMzQyLjA0MyAxNDQuNTkxaC0yMy41OTVNMzgxLjM2NiAxNDQuNTkxaC0zOS4zMjNNNDIwLjY4OSAxNDQuNTkxaC0zOS4zMjMiIHN0cm9rZT0iIzAwMCIgZmlsbD0ibm9uZSIgc3Ryb2tlLWxpbmVqb2luPSJyb3VuZCIgc3Ryb2tlLWxpbmVjYXA9InJvdW5kIiBzdHJva2Utd2lkdGg9Ii4zOTgiLz48dXNlIHRyYW5zZm9ybT0ibWF0cml4KDkuOTYyNiAwIDAgLTkuOTYyNiA0MjcuODEyIDE0Ni40OTYpIiB4bGluazpocmVmPSIjZiIvPjxwYXRoIGQ9Ik00MjkuNzU1IDE0My41MTF2LTE1LjY5Nk00MjguNTM3IDE0NC41OTFoLTcuODQ4TTQ0Ni4zNTUgMTQ0LjU5MWgtMTUuMzgzTTQ1OC44NzEgMTQ0LjU5MWgtMTIuNTE2IiBzdHJva2U9IiMwMDAiIGZpbGw9Im5vbmUiIHN0cm9rZS1saW5lam9pbj0icm91bmQiIHN0cm9rZS1saW5lY2FwPSJyb3VuZCIgc3Ryb2tlLXdpZHRoPSIuMzk4Ii8+PHVzZSB0cmFuc2Zvcm09Im1hdHJpeCg5Ljk2MjYgMCAwIC05Ljk2MjYgODkuMTg5IDE2Ny43MDQpIiB4bGluazpocmVmPSIjYSIvPjx1c2UgdHJhbnNmb3JtPSJtYXRyaXgoOS45NjI2IDAgMCAtOS45NjI2IDkxLjE2IDE2NS40MzIpIiB4bGluazpocmVmPSIjZSIvPjx1c2UgdHJhbnNmb3JtPSJtYXRyaXgoOS45NjI2IDAgMCAtOS45NjI2IDk2LjMgMTY3LjcwNCkiIHhsaW5rOmhyZWY9IiNjIi8+PHBhdGggZD0iTTEwNC42MDcgMTYyLjcyM2gtNC45ODFNMTA5LjU4OSAxNjIuNzIzaC00Ljk4Mk0xMjcuNDUyIDE2Mi43MjNoLTE3Ljg2M00xNjQuNzAzIDE2Mi43MjNoLTM3LjI1MU0xODkuMDcyIDE2Mi43MjNoLTI0LjM2OU0yMTMuNjIxIDE2Mi43MjNoLTI0LjU0OU0yMzguMTcgMTYyLjcyM2gtMjQuNTQ5TTI1OC41NDIgMTYyLjcyM2g3Ljc3TTI2Mi40MjcgMTY2LjYwOHYtNy43N00yNjIuNDI3IDE1OC43MzhhMy45ODcgMy45ODcgMCAwIDAtMy45ODUgMy45ODVNMjU4LjQ0MiAxNjIuNzIzYTMuOTg3IDMuOTg3IDAgMCAwIDMuOTg1IDMuOTg1TTI2Mi40MjcgMTY2LjcwOGEzLjk4NyAzLjk4NyAwIDAgMCAzLjk4NS0zLjk4NSIgc3Ryb2tlPSIjMDAwIiBmaWxsPSJub25lIiBzdHJva2UtbGluZWpvaW49InJvdW5kIiBzdHJva2UtbGluZWNhcD0icm91bmQiIHN0cm9rZS13aWR0aD0iLjM5OCIvPjxwYXRoIGQ9Ik0yNjYuNDEyIDE2Mi43MjNhMy45ODcgMy45ODcgMCAwIDAtMy45ODUtMy45ODVNMjU4LjM0MiAxNjIuNzIzSDIzOC4xN00yNjIuNDI3IDE2Ni44MDh2NDguNzg3TTI1OC4zNDIgMTYyLjcyM0gyMzguMTdNMjg2LjY4NCAxNjIuNzIzaC0yMC4xNzJNMzE0LjM2MyAxNjIuNzIzaC0yNy42NzlNMzQyLjA0MyAxNjIuNzIzaC0yNy42OE0zODEuMzY2IDE2Mi43MjNoLTM5LjMyM000MjAuNjg5IDE2Mi43MjNoLTM5LjMyMyIgc3Ryb2tlPSIjMDAwIiBmaWxsPSJub25lIiBzdHJva2UtbGluZWpvaW49InJvdW5kIiBzdHJva2UtbGluZWNhcD0icm91bmQiIHN0cm9rZS13aWR0aD0iLjM5OCIvPjx1c2UgdHJhbnNmb3JtPSJtYXRyaXgoOS45NjI2IDAgMCAtOS45NjI2IDQyNy44MTIgMTY0LjYyOCkiIHhsaW5rOmhyZWY9IiNmIi8+PHBhdGggZD0iTTQyOS43NTUgMTYxLjY0M3YtMTUuNjk2TTQyOC41MzcgMTYyLjcyM2gtNy44NDhNNDQ2LjM1NSAxNjIuNzIzaC0xNS4zODNNNDU4Ljg3MSAxNjIuNzIzaC0xMi41MTYiIHN0cm9rZT0iIzAwMCIgZmlsbD0ibm9uZSIgc3Ryb2tlLWxpbmVqb2luPSJyb3VuZCIgc3Ryb2tlLWxpbmVjYXA9InJvdW5kIiBzdHJva2Utd2lkdGg9Ii4zOTgiLz48dXNlIHRyYW5zZm9ybT0ibWF0cml4KDkuOTYyNiAwIDAgLTkuOTYyNiA4OS4xODkgMTg1LjgzNikiIHhsaW5rOmhyZWY9IiNhIi8+PHVzZSB0cmFuc2Zvcm09Im1hdHJpeCg5Ljk2MjYgMCAwIC05Ljk2MjYgOTEuMTYgMTgzLjU2NCkiIHhsaW5rOmhyZWY9IiNlIi8+PHVzZSB0cmFuc2Zvcm09Im1hdHJpeCg5Ljk2MjYgMCAwIC05Ljk2MjYgOTYuMyAxODUuODM2KSIgeGxpbms6aHJlZj0iI2MiLz48cGF0aCBkPSJNMTA0LjYwNyAxODAuODU1aC00Ljk4MU0xMDkuNTg5IDE4MC44NTVoLTQuOTgyTTEyNy40NTIgMTgwLjg1NWgtMTcuODYzTTE2NC43MDMgMTgwLjg1NWgtMzcuMjUxTTE4OS4wNzIgMTgwLjg1NWgtMjQuMzY5TTIwOS43MzYgMTgwLjg1NWg3Ljc3TTIxMy42MjEgMTg0Ljc0di03Ljc3TTIxMy42MjEgMTc2Ljg3YTMuOTg3IDMuOTg3IDAgMCAwLTMuOTg1IDMuOTg1IiBzdHJva2U9IiMwMDAiIGZpbGw9Im5vbmUiIHN0cm9rZS1saW5lam9pbj0icm91bmQiIHN0cm9rZS1saW5lY2FwPSJyb3VuZCIgc3Ryb2tlLXdpZHRoPSIuMzk4Ii8+PHBhdGggZD0iTTIwOS42MzYgMTgwLjg1NWEzLjk4NyAzLjk4NyAwIDAgMCAzLjk4NSAzLjk4NU0yMTMuNjIxIDE4NC44NGEzLjk4NyAzLjk4NyAwIDAgMCAzLjk4NS0zLjk4NU0yMTcuNjA2IDE4MC44NTVhMy45ODcgMy45ODcgMCAwIDAtMy45ODUtMy45ODVNMjA5LjUzNiAxODAuODU1aC0yMC40NjRNMjEzLjYyMSAxODQuOTM5djU0LjcwNU0yMDkuNTM2IDE4MC44NTVoLTIwLjQ2NE0yMzguMTcgMTgwLjg1NWgtMjAuNDY0TTI2Mi40MjcgMTgwLjg1NUgyMzguMTdNMjg2LjY4NCAxODAuODU1aC0yNC4yNTdNMzE0LjM2MyAxODAuODU1aC0yNy42NzlNMzQyLjA0MyAxODAuODU1aC0yNy42OE0zODEuMzY2IDE4MC44NTVoLTM5LjMyM000MjAuNjg5IDE4MC44NTVoLTM5LjMyMyIgc3Ryb2tlPSIjMDAwIiBmaWxsPSJub25lIiBzdHJva2UtbGluZWpvaW49InJvdW5kIiBzdHJva2UtbGluZWNhcD0icm91bmQiIHN0cm9rZS13aWR0aD0iLjM5OCIvPjx1c2UgdHJhbnNmb3JtPSJtYXRyaXgoOS45NjI2IDAgMCAtOS45NjI2IDQyNy44MTIgMTgyLjc2KSIgeGxpbms6aHJlZj0iI2YiLz48cGF0aCBkPSJNNDI5Ljc1NSAxNzkuNzc1di0xNS42OTZNNDI4LjUzNyAxODAuODU1aC03Ljg0OE00NDYuMzU1IDE4MC44NTVoLTE1LjM4M000NTguODcxIDE4MC44NTVoLTEyLjUxNiIgc3Ryb2tlPSIjMDAwIiBmaWxsPSJub25lIiBzdHJva2UtbGluZWpvaW49InJvdW5kIiBzdHJva2UtbGluZWNhcD0icm91bmQiIHN0cm9rZS13aWR0aD0iLjM5OCIvPjx1c2UgdHJhbnNmb3JtPSJtYXRyaXgoOS45NjI2IDAgMCAtOS45NjI2IDg5LjE4OSAyMDMuOTY4KSIgeGxpbms6aHJlZj0iI2EiLz48dXNlIHRyYW5zZm9ybT0ibWF0cml4KDkuOTYyNiAwIDAgLTkuOTYyNiA5MS4xNiAyMDEuNjk2KSIgeGxpbms6aHJlZj0iI2UiLz48dXNlIHRyYW5zZm9ybT0ibWF0cml4KDkuOTYyNiAwIDAgLTkuOTYyNiA5Ni4zIDIwMy45NjgpIiB4bGluazpocmVmPSIjYyIvPjxwYXRoIGQ9Ik0xMDQuNjA3IDE5OC45ODdoLTQuOTgxTTEwOS41ODkgMTk4Ljk4N2gtNC45ODJNMTI3LjQ1MiAxOTguOTg3aC0xNy44NjNNMTYwLjgxOCAxOTguOTg3aDcuNzdNMTY0LjcwMyAyMDIuODcydi03Ljc3TTE2NC43MDMgMTk1LjAwMmEzLjk4NyAzLjk4NyAwIDAgMC0zLjk4NSAzLjk4NSIgc3Ryb2tlPSIjMDAwIiBmaWxsPSJub25lIiBzdHJva2UtbGluZWpvaW49InJvdW5kIiBzdHJva2UtbGluZWNhcD0icm91bmQiIHN0cm9rZS13aWR0aD0iLjM5OCIvPjxwYXRoIGQ9Ik0xNjAuNzE4IDE5OC45ODdhMy45ODcgMy45ODcgMCAwIDAgMy45ODUgMy45ODVNMTY0LjcwMyAyMDIuOTcyYTMuOTg3IDMuOTg3IDAgMCAwIDMuOTg1LTMuOTg1TTE2OC42ODggMTk4Ljk4N2EzLjk4NyAzLjk4NyAwIDAgMC0zLjk4NS0zLjk4NU0xNjAuNjE5IDE5OC45ODdoLTMzLjE2N00xNjQuNzAzIDIwMy4wNzF2MTIuNTI0TTE2MC42MTkgMTk4Ljk4N2gtMzMuMTY3TTE4OS4wNzIgMTk4Ljk4N2gtMjAuMjg0TTIxMy42MjEgMTk4Ljk4N2gtMjQuNTQ5TTIzOC4xNyAxOTguOTg3aC0yNC41NDlNMjYyLjQyNyAxOTguOTg3SDIzOC4xN00yODYuNjg0IDE5OC45ODdoLTI0LjI1N00zMTQuMzYzIDE5OC45ODdoLTI3LjY3OU0zNDIuMDQzIDE5OC45ODdoLTI3LjY4TTM4MS4zNjYgMTk4Ljk4N2gtMzkuMzIzTTQyMC42ODkgMTk4Ljk4N2gtMzkuMzIzIiBzdHJva2U9IiMwMDAiIGZpbGw9Im5vbmUiIHN0cm9rZS1saW5lam9pbj0icm91bmQiIHN0cm9rZS1saW5lY2FwPSJyb3VuZCIgc3Ryb2tlLXdpZHRoPSIuMzk4Ii8+PHVzZSB0cmFuc2Zvcm09Im1hdHJpeCg5Ljk2MjYgMCAwIC05Ljk2MjYgNDI3LjgxMiAyMDAuODkyKSIgeGxpbms6aHJlZj0iI2YiLz48cGF0aCBkPSJNNDI5Ljc1NSAxOTcuOTA3VjE4Mi4yMU00MjguNTM3IDE5OC45ODdoLTcuODQ4TTQ0Ni4zNTUgMTk4Ljk4N2gtMTUuMzgzTTQ1OC44NzEgMTk4Ljk4N2gtMTIuNTE2IiBzdHJva2U9IiMwMDAiIGZpbGw9Im5vbmUiIHN0cm9rZS1saW5lam9pbj0icm91bmQiIHN0cm9rZS1saW5lY2FwPSJyb3VuZCIgc3Ryb2tlLXdpZHRoPSIuMzk4Ii8+PHVzZSB0cmFuc2Zvcm09Im1hdHJpeCg5Ljk2MjYgMCAwIC05Ljk2MjYgODkuMTg5IDIyNS4wNTkpIiB4bGluazpocmVmPSIjYSIvPjx1c2UgdHJhbnNmb3JtPSJtYXRyaXgoOS45NjI2IDAgMCAtOS45NjI2IDkxLjE2IDIyMi43ODcpIiB4bGluazpocmVmPSIjZSIvPjx1c2UgdHJhbnNmb3JtPSJtYXRyaXgoOS45NjI2IDAgMCAtOS45NjI2IDk2LjMgMjI1LjA1OSkiIHhsaW5rOmhyZWY9IiNjIi8+PHBhdGggZD0iTTEwNC42MDcgMjIwLjA3OGgtNC45ODEiIHN0cm9rZT0iIzAwMCIgZmlsbD0ibm9uZSIgc3Ryb2tlLWxpbmVqb2luPSJyb3VuZCIgc3Ryb2tlLWxpbmVjYXA9InJvdW5kIiBzdHJva2Utd2lkdGg9Ii4zOTgiLz48c3ltYm9sIGlkPSJnIj48cGF0aCBkPSJNLjM4NC45NjJDLjM4OS45NzUuMzg5Ljk3OS4zODkuOThhLjAyLjAyIDAgMCAxLS4wMi4wMkMuMzYyIDEgLjM1NS45OTcuMzUyLjk5MUwuMDA1LjAzOEMwIC4wMjUgMCAuMDIxIDAgLjAyQS4wMi4wMiAwIDAgMSAuMDIgMGMuMDEzIDAgLjAxNi4wMDcuMDIyLjAyNGwuMzQyLjkzOHoiLz48L3N5bWJvbD48dXNlIHRyYW5zZm9ybT0ibWF0cml4KDkuOTYyNiAwIDAgLTkuOTYyNiAxMDcuNjQ2IDIyNS4wNTkpIiB4bGluazpocmVmPSIjZyIvPjxwYXRoIGQ9Ik0xMDkuNTg5IDIyMC4wNzhoLTQuOTgyIiBzdHJva2U9IiMwMDAiIGZpbGw9Im5vbmUiIHN0cm9rZS1saW5lam9pbj0icm91bmQiIHN0cm9rZS1saW5lY2FwPSJyb3VuZCIgc3Ryb2tlLXdpZHRoPSIuMzk4Ii8+PHVzZSB0cmFuc2Zvcm09Im1hdHJpeCg5Ljk2MjYgMCAwIC05Ljk2MjYgMTE3Ljk0OCAyMjQuMTMyKSIgeGxpbms6aHJlZj0iI2QiLz48c3ltYm9sIGlkPSJoIj48cGF0aCBkPSJNLjczOC4zNjhhLjM3LjM3IDAgMSAxLS43MzkgMCAuMzcuMzcgMCAwIDEgLjczOSAwTS4xNDUuNjE3YS4zMzYuMzM2IDAgMCAwIC40NDggMEwuMzY5LjM5My4xNDUuNjE3TS4xMjEuMTQ1YS4zMjguMzI4IDAgMCAwIDAgLjQ0N0wuMzQ1LjM2OS4xMjEuMTQ1bS40OTYuNDQ3YS4zMjguMzI4IDAgMCAwIDAtLjQ0N0wuMzkzLjM2OGwuMjI0LjIyNE0uNTkzLjEyYS4zMzYuMzM2IDAgMCAwLS40NDggMGwuMjI0LjIyNEwuNTkzLjEyeiIvPjwvc3ltYm9sPjx1c2UgdHJhbnNmb3JtPSJtYXRyaXgoNi45NzM4IDAgMCAtNi45NzM4IDEyNy4xODcgMjIxLjM0KSIgeGxpbms6aHJlZj0iI2giLz48c3ltYm9sIGlkPSJpIj48cGF0aCBkPSJNLjQ0Mi4xODJILjQwOEMuNDA1LjE2LjM5NS4xMDEuMzgyLjA5MS4zNzQuMDg1LjI5Ny4wODUuMjgzLjA4NUguMDk5YTMuNSAzLjUgMCAwIDAgLjIuMTY4Yy4wNzQuMDU5LjE0My4xMjEuMTQzLjIxNkMuNDQyLjU5LjMzNi42NjQuMjA4LjY2NC4wODQuNjY0IDAgLjU3NyAwIC40ODUgMCAuNDM0LjA0My40MjkuMDUzLjQyOWMuMDI0IDAgLjA1My4wMTcuMDUzLjA1M0MuMTA2LjUuMDk5LjUzNS4wNDcuNTM1YS4xNTcuMTU3IDAgMCAwIC4xNDYuMDkzYy4xIDAgLjE1Mi0uMDc4LjE1Mi0uMTU5Qy4zNDUuMzgyLjI4My4zMTMuMjUxLjI3N0wuMDEuMDM5QzAgLjAzIDAgLjAyOCAwIDBoLjQxMmwuMDMuMTgyeiIvPjwvc3ltYm9sPjx1c2UgdHJhbnNmb3JtPSJtYXRyaXgoNi45NzM4IDAgMCAtNi45NzM4IDEzMy4zMTYgMjIwLjUxNykiIHhsaW5rOmhyZWY9IiNpIi8+PHBhdGggZD0iTTE0MC4zMzUgMjEzLjAzNEgxMTQuNTdNMTE0LjU3IDIxMy4wMzR2MTQuMDg3TTExNC41NyAyMjcuMTIxaDI1Ljc2NU0xNDAuMzM1IDIyNy4xMjF2LTE0LjA4N00xMTQuNTcgMjIwLjA3OGgtNC45ODEiIHN0cm9rZT0iIzAwMCIgZmlsbD0ibm9uZSIgc3Ryb2tlLWxpbmVqb2luPSJyb3VuZCIgc3Ryb2tlLWxpbmVjYXA9InJvdW5kIiBzdHJva2Utd2lkdGg9Ii4zOTgiLz48c3ltYm9sIGlkPSJqIj48cGF0aCBkPSJNLjE0NC4xMTVDLjEwNC4wNDguMDY1LjAzNC4wMjEuMDMxLjAwOS4wMyAwIC4wMyAwIC4wMTEgMCAuMDA1LjAwNSAwIC4wMTMgMGwuMDg2LjAwMy4xLS4wMDNjLjAwNiAwIC4wMTkgMCAuMDE5LjAxOUMuMjE4LjAzLjIwOS4wMzEuMjAyLjAzMS4xNzkuMDMzLjE1NS4wNDEuMTU1LjA2NmMwIC4wMTIuMDA2LjAyMy4wMTQuMDM3bC4wNzYuMTI4aC4yNTFMLjUxMi4wNjRDLjUxMi4wMzQuNDYuMDMxLjQ0LjAzMWMtLjAxNCAwLS4wMjQgMC0uMDI0LS4wMkMuNDE2IDAgLjQyOCAwIC40MyAwbC4xMjUuMDAzTC42NjggMGMuMDA2IDAgLjAxOCAwIC4wMTguMDIgMCAuMDExLS4wMS4wMTEtLjAyMy4wMTEtLjA2MiAwLS4wNjIuMDA3LS4wNjUuMDM2TC41MzcuNjkyQy41MzUuNzEyLjUzNS43MTYuNTE4LjcxNi41MDIuNzE2LjQ5OC43MDkuNDkyLjY5OUwuMTQ0LjExNW0uMTIuMTQ3LjE5Ny4zMy4wMzItLjMzSC4yNjR6Ii8+PC9zeW1ib2w+PHVzZSB0cmFuc2Zvcm09Im1hdHJpeCg5Ljk2MjYgMCAwIC05Ljk2MjYgMTUwLjY0NiAyMzQuNTkzKSIgeGxpbms6aHJlZj0iI2oiLz48c3ltYm9sIGlkPSJrIj48cGF0aCBkPSJNLjQ5MS44OTNjLjAwOC4wMTQuMDA4LjAxNi4wMDguMDE5IDAgLjAwNy0uMDA2LjAyLS4wMi4wMkMuNDY3LjkzMi40NjQuOTI2LjQ1Ny45MTJMLjAwOC4wMzlDMCAuMDI1IDAgLjAyMyAwIC4wMiAwIC4wMTIuMDA3IDAgLjAyIDBjLjAxMiAwIC4wMTUuMDA2LjAyMi4wMmwuNDQ5Ljg3M3oiLz48L3N5bWJvbD48dXNlIHRyYW5zZm9ybT0ibWF0cml4KDkuOTYyNiAwIDAgLTkuOTYyNiAxNjEuOTIyIDIzNi43NDUpIiB4bGluazpocmVmPSIjayIvPjxzeW1ib2wgaWQ9ImwiPjxwYXRoIGQ9Ik0uNjMxLjE5NGMuMDE1IDAgLjAzNCAwIC4wMzQuMDJzLS4wMTkuMDItLjAzMy4wMkguMDMzQy4wMTkuMjM0IDAgLjIzNCAwIC4yMTRzLjAxOS0uMDIuMDM0LS4wMmguNTk3TS42MzIgMGMuMDE0IDAgLjAzMyAwIC4wMzMuMDJTLjY0Ni4wNC42MzEuMDRILjAzNEMuMDE5LjA0IDAgLjA0IDAgLjAyUy4wMTkgMCAuMDMzIDBoLjU5OXoiLz48L3N5bWJvbD48dXNlIHRyYW5zZm9ybT0ibWF0cml4KDkuOTYyNiAwIDAgLTkuOTYyNiAxNjEuMDk1IDIzMy4yNjgpIiB4bGluazpocmVmPSIjbCIvPjxzeW1ib2wgaWQ9Im0iPjxwYXRoIGQ9Ik0uMTE4LjA3OEMuMTA4LjAzOS4xMDYuMDMxLjAyNy4wMzEuMDEuMDMxIDAgLjAzMSAwIC4wMTEgMCAwIC4wMDkgMCAuMDI3IDBoLjM1N0MuNTQyIDAgLjY2LjExOC42Ni4yMTZjMCAuMDcyLS4wNTguMTMtLjE1NS4xNDEuMTA0LjAxOS4yMDkuMDkzLjIwOS4xODggMCAuMDc0LS4wNjYuMTM4LS4xODYuMTM4SC4xOTJjLS4wMTkgMC0uMDI5IDAtLjAyOS0uMDIgMC0uMDExLjAwOS0uMDExLjAyOC0uMDExLjAwMiAwIC4wMjEgMCAuMDM4LS4wMDJDLjI0Ny42NDguMjU2LjY0Ny4yNTYuNjM0TC4yNTIuNjE1LjExOC4wNzhtLjE1MS4yODguMDYyLjI0OEMuMzQuNjQ5LjM0Mi42NTIuMzg1LjY1MmguMTI5Qy42MDIuNjUyLjYyMy41OTMuNjIzLjU0OS42MjMuNDYxLjUzNy4zNjYuNDE1LjM2NkguMjY5TS4yMjQuMDMxYS4xMS4xMSAwIDAgMC0uMDIyLjAwMUMuMTkyLjAzMy4xODkuMDM0LjE4OS4wNDJjMCAuMDAzIDAgLjAwNS4wMDUuMDIzbC4wNjkuMjc5aC4xODlDLjU0OC4zNDQuNTY3LjI3LjU2Ny4yMjdBLjIwNS4yMDUgMCAwIDAgLjM2LjAzMUguMjI0eiIvPjwvc3ltYm9sPjx1c2UgdHJhbnNmb3JtPSJtYXRyaXgoOS45NjI2IDAgMCAtOS45NjI2IDE3MS40NzEgMjM0LjU5MykiIHhsaW5rOmhyZWY9IiNtIi8+PHBhdGggZD0iTTE4NC4wOTEgMjE1LjU5NWgtMzguNzc1TTE0NS4zMTYgMjE1LjU5NXYzMy4wMTZNMTQ1LjMxNiAyNDguNjExaDM4Ljc3NU0xODQuMDkxIDI0OC42MTF2LTMzLjAxNk0xNDUuMzE2IDIyMC4wNzhoLTQuOTgxTTE4OS4wNzIgMjIwLjA3OGgtNC45ODFNMjEzLjYyMSAyMjAuMDc4aC0yNC41NDlNMjM4LjE3IDIyMC4wNzhoLTI0LjU0OSIgc3Ryb2tlPSIjMDAwIiBmaWxsPSJub25lIiBzdHJva2UtbGluZWpvaW49InJvdW5kIiBzdHJva2UtbGluZWNhcD0icm91bmQiIHN0cm9rZS13aWR0aD0iLjM5OCIvPjx1c2UgdHJhbnNmb3JtPSJtYXRyaXgoOS45NjI2IDAgMCAtOS45NjI2IDI0OC40ODIgMjQ2LjY2NikiIHhsaW5rOmhyZWY9IiNqIi8+PHVzZSB0cmFuc2Zvcm09Im1hdHJpeCg5Ljk2MjYgMCAwIC05Ljk2MjYgMjU5Ljc1OCAyNDguODE4KSIgeGxpbms6aHJlZj0iI2siLz48dXNlIHRyYW5zZm9ybT0ibWF0cml4KDkuOTYyNiAwIDAgLTkuOTYyNiAyNTguOTMgMjQ1LjM0MSkiIHhsaW5rOmhyZWY9IiNsIi8+PHN5bWJvbCBpZD0ibiI+PHBhdGggZD0iTS43MS43MTdhLjAxLjAxIDAgMCAxLS4wMTEuMDFDLjY5Ni43MjcuNjk1LjcyNi42ODQuNzE1TC42MTQuNjM4Qy42MDUuNjUyLjU1OS43MjcuNDQ4LjcyN0EuNDguNDggMCAwIDEgMCAuMjc0QzAgLjEwOS4xMTggMCAuMjcxIDBjLjA4NyAwIC4xNjMuMDQuMjE2LjA4NmEuMzMuMzMgMCAwIDEgLjExLjE3NmMwIC4wMS0uMDEuMDEtLjAxMi4wMUMuNTc5LjI3Mi41NzQuMjcuNTcyLjI2MkEuMzI1LjMyNSAwIDAgMCAuNDcxLjEwNC4yODkuMjg5IDAgMCAwIC4yODcuMDMxYy0uMDkgMC0uMTk2LjA1Mi0uMTk2LjIwOGEuNTcuNTcgMCAwIDAgLjEyMS4zMzYuMzQuMzQgMCAwIDAgLjI0NC4xMjFDLjU1OC42OTYuNjE3LjYxOS42MTcuNTAzLjYxNy40NjMuNjE0LjQ2Mi42MTQuNDUyYzAtLjAxLjAxMS0uMDEuMDE1LS4wMS4wMTMgMCAuMDEzLjAwMi4wMTguMDJMLjcxLjcxN3oiLz48L3N5bWJvbD48dXNlIHRyYW5zZm9ybT0ibWF0cml4KDkuOTYyNiAwIDAgLTkuOTYyNiAyNjkuMzg3IDI0Ni44ODUpIiB4bGluazpocmVmPSIjbiIvPjxwYXRoIGQ9Ik0yODEuNzAzIDIxNS41OTVoLTM4LjU1MU0yNDMuMTUyIDIxNS41OTV2NTcuMTYyTTI0My4xNTIgMjcyLjc1N2gzOC41NTFNMjgxLjcwMyAyNzIuNzU3di01Ny4xNjJNMjQzLjE1MiAyMjAuMDc4aC00Ljk4Mk0yODYuNjg0IDIyMC4wNzhoLTQuOTgxTTMxNC4zNjMgMjIwLjA3OGgtMjcuNjc5TTM0Mi4wNDMgMjIwLjA3OGgtMjcuNjgiIHN0cm9rZT0iIzAwMCIgZmlsbD0ibm9uZSIgc3Ryb2tlLWxpbmVqb2luPSJyb3VuZCIgc3Ryb2tlLWxpbmVjYXA9InJvdW5kIiBzdHJva2Utd2lkdGg9Ii4zOTgiLz48c3ltYm9sIGlkPSJvIj48cGF0aCBkPSJNLjQwMy42MDdDLjQxLjYzNS40MTQuNjQxLjQyNi42NDRjLjAwOS4wMDIuMDQyLjAwMi4wNjMuMDAyQy41OS42NDYuNjM1LjY0Mi42MzUuNTY0QS43MzkuNzM5IDAgMCAwIC42MjQuNDY1YzAtLjAwNi4wMDMtLjAxMy4wMTItLjAxMy4wMTEgMCAuMDEzLjAwOC4wMTUuMDIzbC4wMjcuMTc0QS4xMTEuMTExIDAgMCAxIC42OC42NjZDLjY4LjY3Ny42Ny42NzcuNjUzLjY3N0guMDk4Qy4wNzQuNjc3LjA3My42NzYuMDY2LjY1N0wuMDA2LjQ4MUEuMTI3LjEyNyAwIDAgMSAwIC40NjNDMCAuNDU3LjAwNS40NTIuMDEyLjQ1MmMuMDEgMCAuMDExLjAwNS4wMTcuMDIxLjA1NC4xNTUuMDguMTczLjIyOC4xNzNoLjAzOUMuMzI0LjY0Ni4zMjQuNjQyLjMyNC42MzRBLjA5OC4wOTggMCAwIDAgLjMyLjYxM0wuMTg2LjA3OUMuMTc3LjA0Mi4xNzQuMDMxLjA2Ny4wMzFjLS4wMzYgMC0uMDQyIDAtLjA0Mi0uMDE5Qy4wMjUgMCAuMDM2IDAgLjA0MiAwbC4wODIuMDAyLjA4NS4wMDEuMDgzLS4wMDFMLjM3OSAwYy4wMSAwIC4wMjIgMCAuMDIyLjAyIDAgLjAxMS0uMDA4LjAxMS0uMDM0LjAxMS0uMDI1IDAtLjAzOCAwLS4wNjQuMDAyQy4yNzQuMDM2LjI2Ni4wMzkuMjY2LjA1NWMwIC4wMDEgMCAuMDA2LjAwNC4wMjFsLjEzMy41MzF6Ii8+PC9zeW1ib2w+PHVzZSB0cmFuc2Zvcm09Im1hdHJpeCg5Ljk2MjYgMCAwIC05Ljk2MjYgMzUyLjI0NSAyMzQuNTkzKSIgeGxpbms6aHJlZj0iI28iLz48c3ltYm9sIGlkPSJwIj48cGF0aCBkPSJNLjIzMi4wMWMwIC4wMDMgMCAuMDA1LS4wMTcuMDIyQy4wOS4xNTguMDU4LjM0Ny4wNTguNWMwIC4xNzQuMDM4LjM0OC4xNjEuNDczLjAxMy4wMTIuMDEzLjAxNC4wMTMuMDE3IDAgLjAwNy0uMDA0LjAxLS4wMS4wMS0uMDEgMC0uMS0uMDY4LS4xNTktLjE5NUEuNzI3LjcyNyAwIDAgMSAwIC41QzAgLjQyMi4wMTEuMzAxLjA2Ni4xODhBLjQzMi40MzIgMCAwIDEgLjIyMiAwYy4wMDYgMCAuMDEuMDAzLjAxLjAxeiIvPjwvc3ltYm9sPjx1c2UgdHJhbnNmb3JtPSJtYXRyaXgoOS45NjI2IDAgMCAtOS45NjI2IDM2MC4xOTcgMjM3LjA4NCkiIHhsaW5rOmhyZWY9IiNwIi8+PHVzZSB0cmFuc2Zvcm09Im1hdHJpeCg5Ljk2MjYgMCAwIC05Ljk2MjYgMzYzLjQzNSAyMzQuNTkzKSIgeGxpbms6aHJlZj0iI2oiLz48c3ltYm9sIGlkPSJxIj48cGF0aCBkPSJNLjIzMi41YS43MjkuNzI5IDAgMCAxLS4wNjYuMzEyQS40MzIuNDMyIDAgMCAxIC4wMSAxQy4wMDQgMSAwIC45OTYgMCAuOTkgMCAuOTg3IDAgLjk4NS4wMTkuOTY3LjExNy44NjguMTc0LjcwOS4xNzQuNS4xNzQuMzI5LjEzNy4xNTMuMDEzLjAyNyAwIC4wMTUgMCAuMDEzIDAgLjAxIDAgLjAwNC4wMDQgMCAuMDEgMGMuMDEgMCAuMS4wNjguMTU5LjE5NUMuMjIuMzA1LjIzMi40MTYuMjMyLjV6Ii8+PC9zeW1ib2w+PHVzZSB0cmFuc2Zvcm09Im1hdHJpeCg5Ljk2MjYgMCAwIC05Ljk2MjYgMzcxLjEyNiAyMzcuMDg0KSIgeGxpbms6aHJlZj0iI3EiLz48c3ltYm9sIGlkPSJyIj48cGF0aCBkPSJNLjU5Mi41MzhDLjYwNC41NDQuNjExLjU0OS42MTEuNTZhLjAyLjAyIDAgMCAxLS4wMi4wMkMuNTg4LjU4LjU4Ni41OC41NzMuNTczTC4wMTkuMzEyQy4wMDguMzA3IDAgLjMwMiAwIC4yOSAwIC4yNzguMDA4LjI3My4wMTkuMjY4TC41NzMuMDA3Qy41ODYgMCAuNTg4IDAgLjU5MSAwYS4wMi4wMiAwIDAgMSAuMDIuMDJjMCAuMDExLS4wMDcuMDE2LS4wMTkuMDIyTC4wNjcuMjlsLjUyNS4yNDh6Ii8+PC9zeW1ib2w+PHVzZSB0cmFuc2Zvcm09Im1hdHJpeCg5Ljk2MjYgMCAwIC05Ljk2MjYgMzc4LjAyNiAyMzQuOTkyKSIgeGxpbms6aHJlZj0iI3IiLz48dXNlIHRyYW5zZm9ybT0ibWF0cml4KDkuOTYyNiAwIDAgLTkuOTYyNiAzODcuOTU5IDIzNC41OTMpIiB4bGluazpocmVmPSIjbyIvPjx1c2UgdHJhbnNmb3JtPSJtYXRyaXgoOS45NjI2IDAgMCAtOS45NjI2IDM5NS45MDcgMjM3LjA4NCkiIHhsaW5rOmhyZWY9IiNwIi8+PHVzZSB0cmFuc2Zvcm09Im1hdHJpeCg5Ljk2MjYgMCAwIC05Ljk2MjYgMzk5LjIxMyAyMzQuNTkzKSIgeGxpbms6aHJlZj0iI20iLz48dXNlIHRyYW5zZm9ybT0ibWF0cml4KDkuOTYyNiAwIDAgLTkuOTYyNiA0MDcuNDIgMjM3LjA4NCkiIHhsaW5rOmhyZWY9IiNxIi8+PHBhdGggZD0iTTQxNS43MDcgMjE1LjU5NWgtNjguNjgzTTM0Ny4wMjQgMjE1LjU5NXYzMy4wMTZNMzQ3LjAyNCAyNDguNjExaDY4LjY4M000MTUuNzA3IDI0OC42MTF2LTMzLjAxNk0zNDcuMDI0IDIyMC4wNzhoLTQuOTgxTTQyMC42ODkgMjIwLjA3OGgtNC45ODJNNDI5Ljc1NSAyMjAuMDc4aC05LjA2Nk00NDYuMzU1IDIyMC4wNzhoLTE2LjZNNDU4Ljg3MSAyMjAuMDc4aC0xMi41MTYiIHN0cm9rZT0iIzAwMCIgZmlsbD0ibm9uZSIgc3Ryb2tlLWxpbmVqb2luPSJyb3VuZCIgc3Ryb2tlLWxpbmVjYXA9InJvdW5kIiBzdHJva2Utd2lkdGg9Ii4zOTgiLz48dXNlIHRyYW5zZm9ybT0ibWF0cml4KDkuOTYyNiAwIDAgLTkuOTYyNiA4OS4xODkgMjQ5LjEwOSkiIHhsaW5rOmhyZWY9IiNhIi8+PHVzZSB0cmFuc2Zvcm09Im1hdHJpeCg5Ljk2MjYgMCAwIC05Ljk2MjYgOTEuMTYgMjQ2LjgzNykiIHhsaW5rOmhyZWY9IiNlIi8+PHVzZSB0cmFuc2Zvcm09Im1hdHJpeCg5Ljk2MjYgMCAwIC05Ljk2MjYgOTYuMyAyNDkuMTA5KSIgeGxpbms6aHJlZj0iI2MiLz48cGF0aCBkPSJNMTA0LjYwNyAyNDQuMTI4aC00Ljk4MSIgc3Ryb2tlPSIjMDAwIiBmaWxsPSJub25lIiBzdHJva2UtbGluZWpvaW49InJvdW5kIiBzdHJva2UtbGluZWNhcD0icm91bmQiIHN0cm9rZS13aWR0aD0iLjM5OCIvPjx1c2UgdHJhbnNmb3JtPSJtYXRyaXgoOS45NjI2IDAgMCAtOS45NjI2IDEwNy42NDYgMjQ5LjEwOSkiIHhsaW5rOmhyZWY9IiNnIi8+PHBhdGggZD0iTTEwOS41ODkgMjQ0LjEyOGgtNC45ODIiIHN0cm9rZT0iIzAwMCIgZmlsbD0ibm9uZSIgc3Ryb2tlLWxpbmVqb2luPSJyb3VuZCIgc3Ryb2tlLWxpbmVjYXA9InJvdW5kIiBzdHJva2Utd2lkdGg9Ii4zOTgiLz48dXNlIHRyYW5zZm9ybT0ibWF0cml4KDkuOTYyNiAwIDAgLTkuOTYyNiAxMTcuOTQ4IDI0OC4xODIpIiB4bGluazpocmVmPSIjZCIvPjx1c2UgdHJhbnNmb3JtPSJtYXRyaXgoNi45NzM4IDAgMCAtNi45NzM4IDEyNy4xODcgMjQ1LjM5KSIgeGxpbms6aHJlZj0iI2giLz48dXNlIHRyYW5zZm9ybT0ibWF0cml4KDYuOTczOCAwIDAgLTYuOTczOCAxMzMuMzE2IDI0NC41NjcpIiB4bGluazpocmVmPSIjaSIvPjxwYXRoIGQ9Ik0xNDAuMzM1IDIzNy4wODRIMTE0LjU3TTExNC41NyAyMzcuMDg0djE0LjA4N00xMTQuNTcgMjUxLjE3MWgyNS43NjVNMTQwLjMzNSAyNTEuMTcxdi0xNC4wODdNMTE0LjU3IDI0NC4xMjhoLTQuOTgxTTE0NS4zMTYgMjQ0LjEyOGgtNC45ODFNMTg5LjA3MiAyNDQuMTI4aC00Ljk4MSIgc3Ryb2tlPSIjMDAwIiBmaWxsPSJub25lIiBzdHJva2UtbGluZWpvaW49InJvdW5kIiBzdHJva2UtbGluZWNhcD0icm91bmQiIHN0cm9rZS13aWR0aD0iLjM5OCIvPjx1c2UgdHJhbnNmb3JtPSJtYXRyaXgoOS45NjI2IDAgMCAtOS45NjI2IDE5OS40NTMgMjU4LjY5MSkiIHhsaW5rOmhyZWY9IiNtIi8+PHVzZSB0cmFuc2Zvcm09Im1hdHJpeCg5Ljk2MjYgMCAwIC05Ljk2MjYgMjExLjI0NCAyNjAuODQzKSIgeGxpbms6aHJlZj0iI2siLz48dXNlIHRyYW5zZm9ybT0ibWF0cml4KDkuOTYyNiAwIDAgLTkuOTYyNiAyMTAuNDE3IDI1Ny4zNjYpIiB4bGluazpocmVmPSIjbCIvPjx1c2UgdHJhbnNmb3JtPSJtYXRyaXgoOS45NjI2IDAgMCAtOS45NjI2IDIyMC44NzMgMjU4LjkxKSIgeGxpbms6aHJlZj0iI24iLz48cGF0aCBkPSJNMjMzLjE4OSAyMzkuNjQ0aC0zOS4xMzZNMTk0LjA1MyAyMzkuNjQ0djMzLjExM00xOTQuMDUzIDI3Mi43NTdoMzkuMTM2TTIzMy4xODkgMjcyLjc1N3YtMzMuMTEzTTE5NC4wNTMgMjQ0LjEyOGgtNC45ODFNMjM4LjE3IDI0NC4xMjhoLTQuOTgxTTI0My4xNTIgMjQ0LjEyOGgtNC45ODJNMjg2LjY4NCAyNDQuMTI4aC00Ljk4MU0zMTQuMzYzIDI0NC4xMjhoLTI3LjY3OU0zNDIuMDQzIDI0NC4xMjhoLTI3LjY4TTM0Ny4wMjQgMjQ0LjEyOGgtNC45ODFNNDIwLjY4OSAyNDQuMTI4aC00Ljk4Mk00MjkuNzU1IDI0NC4xMjhoLTkuMDY2TTQ0Ni4zNTUgMjQ0LjEyOGgtMTYuNk00NTguODcxIDI0NC4xMjhoLTEyLjUxNiIgc3Ryb2tlPSIjMDAwIiBmaWxsPSJub25lIiBzdHJva2UtbGluZWpvaW49InJvdW5kIiBzdHJva2UtbGluZWNhcD0icm91bmQiIHN0cm9rZS13aWR0aD0iLjM5OCIvPjx1c2UgdHJhbnNmb3JtPSJtYXRyaXgoOS45NjI2IDAgMCAtOS45NjI2IDg5LjE4OSAyNzMuMjU1KSIgeGxpbms6aHJlZj0iI2EiLz48dXNlIHRyYW5zZm9ybT0ibWF0cml4KDkuOTYyNiAwIDAgLTkuOTYyNiA5MS4xNiAyNzAuOTgzKSIgeGxpbms6aHJlZj0iI2UiLz48dXNlIHRyYW5zZm9ybT0ibWF0cml4KDkuOTYyNiAwIDAgLTkuOTYyNiA5Ni4zIDI3My4yNTUpIiB4bGluazpocmVmPSIjYyIvPjxwYXRoIGQ9Ik0xMDQuNjA3IDI2OC4yNzRoLTQuOTgxIiBzdHJva2U9IiMwMDAiIGZpbGw9Im5vbmUiIHN0cm9rZS1saW5lam9pbj0icm91bmQiIHN0cm9rZS1saW5lY2FwPSJyb3VuZCIgc3Ryb2tlLXdpZHRoPSIuMzk4Ii8+PHVzZSB0cmFuc2Zvcm09Im1hdHJpeCg5Ljk2MjYgMCAwIC05Ljk2MjYgMTA3LjY0NiAyNzMuMjU1KSIgeGxpbms6aHJlZj0iI2ciLz48cGF0aCBkPSJNMTA5LjU4OSAyNjguMjc0aC00Ljk4MiIgc3Ryb2tlPSIjMDAwIiBmaWxsPSJub25lIiBzdHJva2UtbGluZWpvaW49InJvdW5kIiBzdHJva2UtbGluZWNhcD0icm91bmQiIHN0cm9rZS13aWR0aD0iLjM5OCIvPjx1c2UgdHJhbnNmb3JtPSJtYXRyaXgoOS45NjI2IDAgMCAtOS45NjI2IDExNy45NDggMjcyLjMyOSkiIHhsaW5rOmhyZWY9IiNkIi8+PHVzZSB0cmFuc2Zvcm09Im1hdHJpeCg2Ljk3MzggMCAwIC02Ljk3MzggMTI3LjE4NyAyNjkuNTM2KSIgeGxpbms6aHJlZj0iI2giLz48dXNlIHRyYW5zZm9ybT0ibWF0cml4KDYuOTczOCAwIDAgLTYuOTczOCAxMzMuMzE2IDI2OC43MTMpIiB4bGluazpocmVmPSIjaSIvPjxwYXRoIGQ9Ik0xNDAuMzM1IDI2MS4yM0gxMTQuNTdNMTE0LjU3IDI2MS4yM3YxNC4wODdNMTE0LjU3IDI3NS4zMTdoMjUuNzY1TTE0MC4zMzUgMjc1LjMxN1YyNjEuMjNNMTE0LjU3IDI2OC4yNzRoLTQuOTgxTTE2NC43MDMgMjY4LjI3NGgtMjQuMzY4TTE4OS4wNzIgMjY4LjI3NGgtMjQuMzY5TTE5NC4wNTMgMjY4LjI3NGgtNC45ODFNMjM4LjE3IDI2OC4yNzRoLTQuOTgxTTI0My4xNTIgMjY4LjI3NGgtNC45ODJNMjg2LjY4NCAyNjguMjc0aC00Ljk4MSIgc3Ryb2tlPSIjMDAwIiBmaWxsPSJub25lIiBzdHJva2UtbGluZWpvaW49InJvdW5kIiBzdHJva2UtbGluZWNhcD0icm91bmQiIHN0cm9rZS13aWR0aD0iLjM5OCIvPjxzeW1ib2wgaWQ9InMiPjxwYXRoIGQ9Ik0uNDI4LjI4NGMwIC4xMDQtLjA3LjE2OS0uMTYuMTY5Qy4xMzQuNDUzIDAgLjMxMSAwIC4xNjkgMCAuMDcuMDY3IDAgLjE2IDBjLjEzMyAwIC4yNjguMTM4LjI2OC4yODRNLjE2MS4wMjJDLjExOC4wMjIuMDc0LjA1My4wNzQuMTMxLjA3NC4xOC4xLjI4OC4xMzIuMzM5Yy4wNS4wNzcuMTA3LjA5Mi4xMzUuMDkyLjA1OCAwIC4wODgtLjA0OC4wODgtLjEwOEEuNTI3LjUyNyAwIDAgMCAuMjk3LjExNEMuMjYyLjA1Ni4yMDcuMDIyLjE2MS4wMjJ6Ii8+PC9zeW1ib2w+PHN5bWJvbCBpZD0idCI+PHBhdGggZD0iTS4wNTkuMDdDLjA1Ni4wNTUuMDUuMDMyLjA1LjAyNy4wNS4wMDkuMDY0IDAgLjA3OSAwYS4wNC4wNCAwIDAgMSAuMDM3LjAyOCAyLjEgMi4xIDAgMCAxIC4wMTkuMDc0bC4wMjIuMDkuMDE3LjA2Ny4wMTMuMDVDLjIwMi4zNC4yNTUuNDMxLjM1LjQzMWMuMDQ1IDAgLjA1NC0uMDM3LjA1NC0uMDdDLjQwNC4yOTkuMzU1LjE3MS4zMzkuMTI4YS4xMTQuMTE0IDAgMCAxLS4wMS0uMDQ2QS4wOC4wOCAwIDAgMSAuNDExIDBjLjA5NCAwIC4xMzEuMTQ2LjEzMS4xNTQgMCAuMDEtLjAwOS4wMS0uMDEyLjAxQy41Mi4xNjQuNTIuMTYxLjUxNS4xNDYuNDk1LjA3OC40NjIuMDIyLjQxMy4wMjJjLS4wMTcgMC0uMDI0LjAxLS4wMjQuMDMzYS4xOS4xOSAwIDAgMCAuMDE4LjA3MWMuMDE5LjA1My4wNjEuMTYzLjA2MS4yMiAwIC4wNjctLjA0My4xMDctLjExNS4xMDdBLjE5My4xOTMgMCAwIDEgLjE5Ny4zNjZhLjA5LjA5IDAgMCAxLS4wOTIuMDg3Qy4wNTkuNDUzLjA0LjQxNC4wMy4zOTZBLjUwNC41MDQgMCAwIDEgMCAuMjk5YzAtLjAxLjAxLS4wMS4wMTItLjAxLjAxIDAgLjAxMS4wMDEuMDE3LjAyMy4wMTcuMDcxLjAzNy4xMTkuMDczLjExOS4wMiAwIC4wMzEtLjAxMy4wMzEtLjA0NkMuMTMzLjM2NC4xMy4zNTMuMTE3LjMwMUwuMDU5LjA3eiIvPjwvc3ltYm9sPjxzeW1ib2wgaWQ9InUiPjxwYXRoIGQ9Ik0uODg0LjYwNkMuODkzLjY0Mi44OTUuNjUyLjk3LjY1MmMuMDIzIDAgLjAzMiAwIC4wMzIuMDIgMCAuMDExLS4wMS4wMTEtLjAyNy4wMTFILjg0M2MtLjAyNiAwLS4wMjcgMC0uMDM5LS4wMTlMLjQzOS4wOTQuMzYxLjY2Qy4zNTguNjgzLjM1Ni42ODMuMzMuNjgzSC4xOTNjLS4wMTkgMC0uMDMgMC0uMDMtLjAxOSAwLS4wMTIuMDA5LS4wMTIuMDI5LS4wMTJBLjU5LjU5IDAgMCAwIC4yMzUuNjVDLjI1MS42NDguMjU3LjY0NS4yNTcuNjM0TC4yNTMuNjE1LjEyNi4xMDZDLjExNi4wNjYuMDk5LjAzNC4wMTguMDMxLjAxMy4wMzEgMCAuMDMgMCAuMDEyIDAgLjAwMy4wMDYgMCAuMDE0IDBsLjEuMDAzTC4yMTcgMGMuMDA1IDAgLjAxOCAwIC4wMTguMDIgMCAuMDExLS4wMTEuMDExLS4wMTguMDExQy4xNi4wMzIuMTQ5LjA1Mi4xNDkuMDc1YzAgLjAwNy4wMDEuMDEyLjAwNC4wMjNsLjEzNi41NDVILjI5bC4wODYtLjYyQy4zNzguMDExLjM3OSAwIC4zOTEgMGMuMDExIDAgLjAxNy4wMTEuMDIyLjAxOGwuNDA0LjYzM2guMDAxTC42NzUuMDc4Qy42NjUuMDM5LjY2My4wMzEuNTg0LjAzMWMtLjAxNyAwLS4wMjggMC0uMDI4LS4wMTlDLjU1NiAwIC41NjggMCAuNTcxIDBsLjEyNC4wMDNMLjgyIDBjLjAwNiAwIC4wMTkgMCAuMDE5LjAyQy44MzkuMDMxLjgzLjAzMS44MTEuMDMxYy0uMDM3IDAtLjA2NSAwLS4wNjUuMDE4IDAgLjAwNCAwIC4wMDYuMDA1LjAyNGwuMTMzLjUzM3oiLz48L3N5bWJvbD48dXNlIHRyYW5zZm9ybT0ibWF0cml4KDkuOTYyNiAwIDAgLTkuOTYyNiAyOTUuMTUyIDI3MS4xNSkiIHhsaW5rOmhyZWY9IiNuIi8+PHVzZSB0cmFuc2Zvcm09Im1hdHJpeCg5Ljk2MjYgMCAwIC05Ljk2MjYgMzA2LjIyIDI3MS4wNCkiIHhsaW5rOmhyZWY9IiNzIi8+PHVzZSB0cmFuc2Zvcm09Im1hdHJpeCg5Ljk2MjYgMCAwIC05Ljk2MjYgMzEwLjkzMyAyNzEuMDQpIiB4bGluazpocmVmPSIjdCIvPjx1c2UgdHJhbnNmb3JtPSJtYXRyaXgoOS45NjI2IDAgMCAtOS45NjI2IDMyMC4zNTcgMjcwLjkzKSIgeGxpbms6aHJlZj0iI3UiLz48c3ltYm9sIGlkPSJ2Ij48cGF0aCBkPSJNLjIyNi42MzZjMCAuMDI3LS4wMDIuMDI4LS4wMy4wMjhDLjEzMi42MDEuMDQxLjYgMCAuNlYuNTY0Yy4wMjQgMCAuMDkgMCAuMTQ1LjAyOHYtLjUxYzAtLjAzMyAwLS4wNDYtLjEtLjA0NkguMDA3VjBsLjE3OC4wMDRMLjM2NCAwdi4wMzZILjMyNmMtLjEgMC0uMS4wMTMtLjEuMDQ2di41NTR6Ii8+PC9zeW1ib2w+PHVzZSB0cmFuc2Zvcm09Im1hdHJpeCg2Ljk3MzggMCAwIC02Ljk3MzggMzMwLjM2NCAyNzIuNDI1KSIgeGxpbms6aHJlZj0iI3YiLz48cGF0aCBkPSJNMzM3LjA2MSAyNjEuMTM0aC00NS4zOTZNMjkxLjY2NSAyNjEuMTM0djE0LjI4TTI5MS42NjUgMjc1LjQxNGg0NS4zOTZNMzM3LjA2MSAyNzUuNDE0di0xNC4yOE0yOTEuNjY1IDI2OC4yNzRoLTQuOTgxTTM0Mi4wNDMgMjY4LjI3NGgtNC45ODJNMzgxLjM2NiAyNjguMjc0aC0zOS4zMjNNNDIwLjY4OSAyNjguMjc0aC0zOS4zMjNNNDI5Ljc1NSAyNjguMjc0aC05LjA2Nk00NDYuMzU1IDI2OC4yNzRoLTE2LjZNNDU4Ljg3MSAyNjguMjc0aC0xMi41MTYiIHN0cm9rZT0iIzAwMCIgZmlsbD0ibm9uZSIgc3Ryb2tlLWxpbmVqb2luPSJyb3VuZCIgc3Ryb2tlLWxpbmVjYXA9InJvdW5kIiBzdHJva2Utd2lkdGg9Ii4zOTgiLz48L3N2Zz4=;" vertex="1" parent="1">
          <mxGeometry y="10" width="1162.2" height="780" as="geometry" />
        </mxCell>
        <mxCell id="z3x2qYS7Z3auoU4rlSnP-7" value="&lt;font style=&quot;font-size: 18px;&quot;&gt;$$A$$&lt;/font&gt;" style="text;html=1;align=center;verticalAlign=middle;whiteSpace=wrap;rounded=0;fontFamily=Helvetica;fontSize=12;fontColor=default;" parent="1" vertex="1">
          <mxGeometry x="126" y="453" width="60" height="30" as="geometry" />
        </mxCell>
        <mxCell id="z3x2qYS7Z3auoU4rlSnP-8" value="&lt;font style=&quot;font-size: 18px;&quot;&gt;$$B$$&lt;/font&gt;" style="text;html=1;align=center;verticalAlign=middle;whiteSpace=wrap;rounded=0;fontFamily=Helvetica;fontSize=12;fontColor=default;" parent="1" vertex="1">
          <mxGeometry x="126" y="503" width="60" height="30" as="geometry" />
        </mxCell>
        <mxCell id="z3x2qYS7Z3auoU4rlSnP-9" value="&lt;font style=&quot;font-size: 18px;&quot;&gt;$$C$$&lt;/font&gt;" style="text;html=1;align=center;verticalAlign=middle;whiteSpace=wrap;rounded=0;fontFamily=Helvetica;fontSize=12;fontColor=default;" parent="1" vertex="1">
          <mxGeometry x="126" y="559" width="60" height="30" as="geometry" />
        </mxCell>
        <mxCell id="z3x2qYS7Z3auoU4rlSnP-11" value="" style="strokeWidth=2;html=1;shape=mxgraph.flowchart.annotation_2;align=left;labelPosition=right;pointerEvents=1;rounded=0;verticalAlign=middle;fontFamily=Helvetica;fontSize=12;fontColor=default;fillColor=none;gradientColor=none;" parent="1" vertex="1">
          <mxGeometry x="128" y="268" width="50" height="160" as="geometry" />
        </mxCell>
        <mxCell id="z3x2qYS7Z3auoU4rlSnP-12" value="&lt;font style=&quot;font-size: 18px;&quot;&gt;Ancillas&amp;nbsp;&lt;/font&gt;&lt;div&gt;&lt;font style=&quot;font-size: 18px;&quot;&gt;for requirements&lt;/font&gt;&lt;/div&gt;" style="text;html=1;align=center;verticalAlign=middle;whiteSpace=wrap;rounded=0;fontFamily=Helvetica;fontSize=12;fontColor=default;" parent="1" vertex="1">
          <mxGeometry x="34" y="315" width="120" height="70" as="geometry" />
        </mxCell>
        <mxCell id="z3x2qYS7Z3auoU4rlSnP-13" value="&lt;font style=&quot;font-size: 18px;&quot;&gt;Phase inversion&lt;/font&gt;" style="text;html=1;align=center;verticalAlign=middle;whiteSpace=wrap;rounded=0;fontFamily=Helvetica;fontSize=12;fontColor=default;" parent="1" vertex="1">
          <mxGeometry x="110" y="210" width="60" height="40" as="geometry" />
        </mxCell>
      </root>
    </mxGraphModel>
  </diagram>
</mxfile>
